<?xml version="1.0" standalone="no"?>
<!DOCTYPE svg PUBLIC "-//W3C//DTD SVG 20010904//EN"
 "http://www.w3.org/TR/2001/REC-SVG-20010904/DTD/svg10.dtd">
<svg version="1.0" xmlns="http://www.w3.org/2000/svg"
 width="100%" height="100%" viewBox="0 0 2172 724"
 preserveAspectRatio="xMidYMid meet">

<g transform="translate(0.000000,724.000000) scale(0.100000,-0.100000)"
fill="#000000" stroke="none">
<path fill="#0e24db" d="M2218 4835 c-112 -31 -192 -108 -222 -216 -13 -45 -16 -114 -16 -361
l0 -305 -26 -27 -27 -26 -347 0 c-323 0 -348 -1 -363 -18 -14 -16 -17 -44 -17
-179 0 -150 1 -161 21 -179 20 -18 42 -19 367 -20 l346 -1 23 -27 23 -27 0
-325 c0 -358 3 -380 59 -408 23 -12 63 -16 175 -16 l146 0 32 29 33 29 3 344
3 343 26 27 27 28 297 0 c320 0 411 9 533 54 195 70 349 228 413 421 23 69 27
97 27 205 0 140 -12 198 -69 310 -88 175 -254 297 -466 340 -85 18 -136 20
-524 19 -320 -1 -442 -4 -477 -14z m909 -414 c108 -48 168 -148 161 -268 -7
-110 -56 -185 -153 -229 -48 -22 -62 -23 -346 -25 -265 -3 -299 -1 -323 14
-14 10 -29 30 -33 45 -5 15 -8 122 -8 238 0 197 1 213 20 234 19 21 22 21 325
18 295 -3 307 -4 357 -27z"/>
<path fill="#0e24db" d="M13627 4839 c-104 -25 -201 -102 -246 -198 l-26 -56 -5 -321 c-5
-299 -6 -323 -24 -343 -18 -20 -29 -21 -185 -21 -226 0 -211 14 -211 -195 0
-135 3 -166 16 -179 13 -13 45 -16 189 -16 l174 0 20 -26 c20 -26 21 -38 21
-375 0 -336 1 -350 20 -369 18 -18 33 -20 183 -20 163 0 164 0 188 26 l24 26
3 351 c3 306 5 354 19 369 15 17 44 18 373 18 337 0 359 1 381 19 23 19 24 23
24 181 0 148 -2 163 -19 176 -16 11 -84 14 -377 14 -326 0 -359 2 -379 18 -21
17 -21 24 -22 236 0 201 2 221 19 245 38 51 35 51 543 51 443 0 478 1 510 19
138 73 128 297 -15 362 -37 17 -77 19 -600 18 -308 -1 -577 -5 -598 -10z"/>
<path d="M15158 4420 c-75 -22 -128 -99 -128 -183 0 -120 91 -198 213 -184
105 13 174 97 165 202 -11 127 -126 203 -250 165z"/>
<path d="M18030 4363 c-35 -2 -70 -9 -77 -15 -10 -8 -13 -76 -13 -299 0 -159
-3 -289 -6 -289 -3 0 -25 16 -47 36 -52 44 -165 98 -235 113 -190 39 -385 -21
-527 -164 -119 -118 -175 -260 -175 -439 1 -190 55 -332 174 -451 114 -114
242 -165 411 -165 140 0 238 36 345 124 l55 46 3 -57 c2 -32 8 -63 14 -70 14
-18 289 -18 306 -1 17 17 17 1613 0 1624 -14 9 -139 13 -228 7z m-272 -773
c60 -27 117 -81 150 -145 22 -42 26 -63 27 -135 0 -73 -4 -93 -28 -142 -66
-135 -229 -211 -366 -172 -135 37 -210 125 -236 275 -8 42 16 144 42 187 86
140 264 197 411 132z"/>
<path d="M10723 4255 c-55 -24 -66 -53 -74 -197 -4 -76 -12 -135 -19 -143 -8
-10 -32 -15 -71 -15 -92 0 -99 -12 -99 -160 0 -145 -4 -140 114 -140 l64 0 4
-312 c5 -346 9 -374 71 -465 87 -126 306 -176 522 -118 76 20 95 38 95 86 0
41 -19 192 -25 198 -2 2 -50 3 -107 2 -85 -1 -108 2 -134 18 -59 36 -64 61
-64 340 l0 251 143 0 c98 0 147 4 155 12 17 17 17 259 0 276 -8 8 -57 12 -155
12 l-143 0 0 169 c0 141 -3 172 -16 185 -21 21 -213 22 -261 1z"/>
<path d="M5424 3916 c-251 -58 -445 -239 -499 -468 -19 -82 -19 -228 0 -303
53 -202 209 -362 422 -433 68 -22 96 -26 218 -26 120 -1 151 2 215 22 188 59
325 170 398 323 51 106 61 150 62 270 0 285 -171 510 -455 599 -90 28 -273 36
-361 16z m299 -325 c145 -71 213 -241 160 -397 -24 -70 -119 -164 -193 -189
-160 -55 -331 9 -400 149 -76 155 -35 320 104 414 66 44 97 51 196 49 66 -2
96 -7 133 -26z"/>
<path d="M7073 3915 c-77 -21 -142 -57 -200 -109 -28 -25 -53 -46 -56 -46 -4
0 -7 28 -9 63 l-3 62 -165 0 -164 0 -7 -25 c-4 -14 -7 -390 -8 -835 -1 -719 1
-813 15 -833 14 -21 22 -22 163 -22 101 0 151 4 159 12 9 9 12 96 12 330 l0
318 48 -37 c223 -171 578 -146 781 55 78 78 142 192 167 298 24 104 15 276
-19 372 -66 189 -196 320 -377 383 -84 28 -259 36 -337 14z m209 -323 c108
-53 170 -150 176 -274 4 -66 0 -85 -21 -132 -58 -127 -172 -201 -308 -201 -65
0 -85 5 -143 34 -245 121 -229 480 28 581 72 28 202 24 268 -8z"/>
<path d="M8535 3916 c-178 -34 -321 -128 -416 -274 -190 -290 -113 -673 173
-856 191 -121 502 -138 727 -40 75 33 181 111 181 133 0 10 -47 62 -106 116
l-105 98 -27 -22 c-153 -122 -349 -132 -490 -24 -35 26 -76 83 -87 121 l-6 22
430 0 c362 0 432 2 444 15 22 21 29 90 17 177 -40 316 -265 526 -579 543 -51
3 -115 -1 -156 -9z m205 -286 c87 -24 165 -101 185 -182 l7 -28 -276 0 c-214
0 -276 3 -276 13 1 58 97 164 173 191 49 17 137 20 187 6z"/>
<path d="M18994 3921 c-139 -22 -253 -80 -355 -181 -123 -121 -176 -239 -186
-410 -16 -298 171 -543 477 -626 48 -13 101 -18 200 -17 149 0 244 20 341 69
77 38 159 102 159 122 0 10 -45 62 -99 116 l-100 99 -35 -27 c-20 -15 -66 -41
-104 -59 -60 -28 -77 -31 -157 -31 -77 0 -99 4 -150 27 -33 16 -75 42 -93 60
-33 31 -72 95 -72 117 0 7 137 10 423 10 327 0 427 3 441 13 47 34 22 253 -44
394 -89 191 -281 313 -512 327 -45 2 -106 1 -134 -3z m192 -296 c62 -18 126
-72 153 -128 40 -82 55 -78 -246 -75 l-268 3 3 25 c6 59 106 156 186 179 48
14 117 13 172 -4z"/>
<path d="M10126 3909 c-68 -16 -158 -72 -223 -137 l-63 -63 0 78 c0 48 -5 84
-12 91 -8 8 -57 12 -153 12 -125 0 -144 -2 -158 -18 -15 -17 -17 -71 -17 -573
0 -418 3 -558 12 -567 17 -17 302 -17 316 1 6 7 12 123 14 307 5 352 9 372 98
460 73 73 130 93 243 89 45 -2 88 0 95 4 9 6 12 48 12 152 0 133 -2 145 -20
155 -29 16 -100 20 -144 9z"/>
<path d="M16223 3906 c-77 -19 -155 -63 -209 -117 -27 -27 -51 -49 -54 -49 -4
0 -6 30 -6 66 0 46 -5 68 -15 75 -8 5 -80 9 -160 9 -112 0 -149 -3 -158 -14
-8 -9 -10 -170 -9 -582 l3 -569 154 -3 c99 -2 158 1 166 8 10 9 14 86 17 343
5 379 8 398 84 473 58 59 134 81 218 66 74 -14 122 -50 156 -118 l25 -49 3
-350 c2 -227 7 -354 14 -362 14 -18 299 -18 316 -1 18 18 17 805 -2 873 -23
87 -56 143 -117 199 -106 98 -274 138 -426 102z"/>
<path d="M4570 3901 c-65 -20 -140 -69 -197 -128 l-63 -65 0 85 c0 68 -3 86
-16 91 -31 12 -299 7 -312 -6 -17 -17 -17 -1129 0 -1146 17 -17 299 -17 316 0
9 9 12 83 12 273 0 338 17 411 112 502 59 57 120 78 228 78 53 1 101 4 108 9
9 5 12 48 12 151 0 132 -2 145 -19 155 -22 11 -143 12 -181 1z"/>
<path d="M20499 3900 c-58 -17 -150 -75 -203 -126 -30 -30 -58 -54 -61 -54 -3
0 -5 36 -5 79 0 63 -3 80 -16 85 -9 3 -78 6 -154 6 -113 0 -142 -3 -154 -16
-14 -14 -16 -79 -16 -573 0 -420 3 -560 12 -569 17 -17 314 -17 325 1 4 6 10
154 13 327 l5 315 27 50 c34 64 80 108 143 137 42 19 67 23 155 23 l105 0 5
40 c3 22 3 89 0 150 -5 104 -6 110 -30 122 -28 14 -110 16 -151 3z"/>
<path d="M11450 3875 c-15 -18 -18 -10 127 -349 69 -160 176 -412 238 -559
l114 -268 -113 -254 c-80 -180 -110 -257 -103 -264 7 -7 71 -11 173 -11 140 0
165 2 182 18 11 9 54 100 96 202 41 102 123 298 181 435 59 138 128 304 155
370 27 66 100 244 164 395 85 202 112 278 104 287 -8 10 -53 13 -172 13 -88 0
-166 -4 -172 -8 -6 -4 -16 -16 -21 -27 -8 -15 -168 -428 -283 -730 -7 -19 -8
-19 -18 5 -23 53 -166 422 -223 575 -33 88 -67 166 -76 173 -26 19 -336 17
-353 -3z"/>
<path d="M15058 3879 c-17 -9 -18 -47 -18 -572 0 -425 3 -566 12 -575 8 -8 59
-12 163 -12 104 0 155 4 163 12 17 17 17 1129 0 1146 -15 15 -295 16 -320 1z"/>
</g>
</svg>
